<svg width="14" height="18" viewBox="0 0 14 18" fill="none" xmlns="http://www.w3.org/2000/svg">
<path d="M1.36918 0.25C0.775067 0.25 0.125 0.671585 0.125 1.40239V16.5976C0.125 17.3284 0.775064 17.75 1.36918 17.75H12.5361C13.1302 17.75 13.7802 17.3284 13.7802 16.5976V6.13039C13.7802 5.80301 13.6518 5.4887 13.4225 5.255L8.8799 0.624611C8.64483 0.385001 8.32327 0.25 7.98761 0.25H1.36918ZM1.375 13.2045V1.5H7.62514V6.5115H12.5303V11.8598L10.125 9.4545L6.375 13.2045L3.875 10.7045L1.375 13.2045ZM1.375 14.7955L3.875 12.2955L5.5795 14L3.0795 16.5H1.375V14.7955ZM10.125 11.0455L12.5303 13.4507V16.5H4.67049L10.125 11.0455ZM11.6778 5.2615H8.87514V2.40468L11.6778 5.2615Z" fill="black" fill-opacity="0.9"/>
</svg>
