<svg t="1650632509235" class="icon" style="width: 1em;height: 1em;vertical-align: middle;fill: currentColor;overflow: hidden;" viewBox="0 0 1024 1024" version="1.1" xmlns="http://www.w3.org/2000/svg" p-id="4360" data-spm-anchor-id="a313x.7781069.0.i1"><path d="M323.669333 614.997333l22.613334 22.613334-22.613334-22.613334z m120.661334 0l-22.613334 22.613334 22.613334-22.613334z m7.338666 7.338667l22.613334-22.613333-22.613334 22.613333z m120.661334 0l-22.613334-22.613333 22.613334 22.613333z m92.672-92.672l-22.613334-22.613333 22.613334 22.613333z m120.661333 0l22.613333-22.613333-22.613333 22.613333zM554.666667 202.666667a32 32 0 0 0 0-64v64z m170.666666-64a32 32 0 0 0 0 64v-64zM138.666667 469.333333a32 32 0 0 0 64 0h-64z m64 170.666667a32 32 0 0 0-64 0h64z m618.666666-426.666667v597.333334h64V213.333333h-64zM810.666667 821.333333H213.333333v64h597.333334v-64z m-597.333334 0a10.666667 10.666667 0 0 1-10.666666-10.666666h-64c0 41.216 33.450667 74.666667 74.666666 74.666666v-64zM821.333333 810.666667a10.666667 10.666667 0 0 1-10.666666 10.666666v64A74.666667 74.666667 0 0 0 885.333333 810.666667h-64zM810.666667 202.666667a10.666667 10.666667 0 0 1 10.666666 10.666666h64A74.666667 74.666667 0 0 0 810.666667 138.666667v64zM213.333333 138.666667A74.666667 74.666667 0 0 0 138.666667 213.333333h64A10.666667 10.666667 0 0 1 213.333333 202.666667v-64z m-20.053333 651.946666l153.002667-153.002666-45.226667-45.226667L148.053333 745.386667l45.226667 45.226666z m228.437333-153.002666l7.296 7.338666 45.269334-45.226666-7.296-7.338667-45.269334 45.226667z m173.226667 7.338666l92.672-92.629333-45.226667-45.269333-92.672 92.629333 45.226667 45.269333z m168.106667-92.629333l67.669333 67.626667 45.226667-45.226667-67.626667-67.669333-45.269333 45.226666z m-75.434667 0a53.333333 53.333333 0 0 1 75.434667 0l45.226666-45.269333a117.333333 117.333333 0 0 0-165.888 0l45.226667 45.226666z m-258.56 92.629333a117.333333 117.333333 0 0 0 165.930667 0l-45.269334-45.226666a53.333333 53.333333 0 0 1-75.434666 0l-45.226667 45.226666z m-82.773333-7.296a53.333333 53.333333 0 0 1 75.434666 0l45.226667-45.269333a117.333333 117.333333 0 0 0-165.930667 0l45.269334 45.226667z m77.866666-260.224c0 25.813333-20.949333 46.762667-46.762666 46.762667v64a110.805333 110.805333 0 0 0 110.762666-110.762667h-64zM377.386667 424.192c-25.770667 0-46.72-20.906667-46.72-46.762667h-64a110.762667 110.762667 0 0 0 110.72 110.762667v-64zM330.666667 377.429333c0-25.813333 20.949333-46.762667 46.72-46.762666v-64A110.762667 110.762667 0 0 0 266.666667 377.429333h64zM377.386667 330.666667c25.813333 0 46.762667 20.949333 46.762666 46.762666h64A110.805333 110.805333 0 0 0 377.386667 266.666667v64zM213.333333 202.666667h341.333334v-64H213.333333v64z m512 0h85.333334v-64h-85.333334v64zM202.666667 469.333333V213.333333h-64v256h64z m0 341.333334v-170.666667h-64v170.666667h64z" fill="#001A72" p-id="4361"></path></svg>
