<svg width="16" height="16" viewBox="0 0 16 16" fill="none" xmlns="http://www.w3.org/2000/svg">
<path fill-rule="evenodd" clip-rule="evenodd" d="M2.31224 4.47706C2.03955 4.75033 1.93333 5.00449 1.93333 5.23077C1.93333 5.45704 2.03955 5.71121 2.31224 5.98448C2.58691 6.25973 3.0075 6.52878 3.56406 6.76469C4.67554 7.2358 6.24356 7.53846 8 7.53846C9.75644 7.53846 11.3245 7.2358 12.4359 6.76469C12.9925 6.52878 13.4131 6.25973 13.6878 5.98448C13.9605 5.71121 14.0667 5.45704 14.0667 5.23077C14.0667 5.00449 13.9605 4.75033 13.6878 4.47706C13.4131 4.20181 12.9925 3.93276 12.4359 3.69685C11.3245 3.22574 9.75644 2.92308 8 2.92308C6.24356 2.92308 4.67554 3.22574 3.56406 3.69685C3.0075 3.93276 2.58691 4.20181 2.31224 4.47706ZM3.19641 2.84841C4.44954 2.31725 6.14818 2 8 2C9.85182 2 11.5505 2.31725 12.8036 2.84841C13.4293 3.11363 13.9655 3.4413 14.3521 3.82866C14.7406 4.218 15 4.69234 15 5.23077C15 5.7692 14.7406 6.24354 14.3521 6.63288C13.9655 7.02024 13.4293 7.34791 12.8036 7.61313C11.5505 8.14429 9.85182 8.46154 8 8.46154C6.14818 8.46154 4.44954 8.14429 3.19641 7.61313C2.57067 7.34791 2.03448 7.02024 1.64794 6.63288C1.25942 6.24354 1 5.7692 1 5.23077C1 4.69234 1.25942 4.218 1.64794 3.82866C2.03448 3.4413 2.57067 3.11363 3.19641 2.84841ZM3.56406 9.53392C4.67554 10.005 6.24356 10.3077 8 10.3077C9.75644 10.3077 11.3245 10.005 12.4359 9.53392C12.9925 9.29801 13.4131 9.02896 13.6878 8.75371C13.9605 8.48044 14.0667 8.22628 14.0667 8H15C15 8.53843 14.7406 9.01277 14.3521 9.40211C13.9655 9.78947 13.4293 10.1171 12.8036 10.3824C11.5505 10.9135 9.85182 11.2308 8 11.2308C6.14818 11.2308 4.44954 10.9135 3.19641 10.3824C2.57067 10.1171 2.03448 9.78947 1.64794 9.40211C1.25942 9.01277 1 8.53843 1 8H1.93333C1.93333 8.22628 2.03955 8.48044 2.31224 8.75371C2.58691 9.02896 3.0075 9.29801 3.56406 9.53392ZM8 13.0769C6.24356 13.0769 4.67554 12.7743 3.56406 12.3032C3.0075 12.0672 2.58691 11.7982 2.31224 11.5229C2.03955 11.2497 1.93333 10.9955 1.93333 10.7692H1C1 11.3077 1.25942 11.782 1.64794 12.1713C2.03448 12.5587 2.57067 12.8864 3.19641 13.1516C4.44954 13.6827 6.14818 14 8 14C9.85182 14 11.5505 13.6827 12.8036 13.1516C13.4293 12.8864 13.9655 12.5587 14.3521 12.1713C14.7406 11.782 15 11.3077 15 10.7692H14.0667C14.0667 10.9955 13.9605 11.2497 13.6878 11.5229C13.4131 11.7982 12.9925 12.0672 12.4359 12.3032C11.3245 12.7743 9.75644 13.0769 8 13.0769Z" fill="url(#paint0_linear_2542_1505)"/>
<defs>
<linearGradient id="paint0_linear_2542_1505" x1="1.75827" y1="8" x2="15" y2="8" gradientUnits="userSpaceOnUse">
<stop stop-color="#74F5DA"/>
<stop offset="1" stop-color="#CDFF8C"/>
</linearGradient>
</defs>
</svg>
