<svg width="12" height="12" viewBox="0 0 12 12" fill="none" xmlns="http://www.w3.org/2000/svg">
<path d="M0.293288 11.7067C0.480747 11.8942 0.734893 11.9996 1 12H11C11.2651 11.9996 11.5193 11.8942 11.7067 11.7067C11.8942 11.5193 11.9996 11.2651 12 11V6.5H11V11H1V1H5.5V0H1C0.734893 0.000357171 0.480747 0.105829 0.293288 0.293288C0.105829 0.480747 0.000357171 0.734893 0 1V11C0.000357171 11.2651 0.105829 11.5193 0.293288 11.7067Z" fill="#34AAFF"/>
<path d="M7 1V0H11.5C11.7761 0 12 0.223858 12 0.5V5H11V1.707L6.707 6L6 5.293L10.293 1H7Z" fill="#34AAFF"/>
</svg>
