<svg width="124" height="22" viewBox="0 0 124 22" fill="none" xmlns="http://www.w3.org/2000/svg">
<path d="M23.5453 1.00193L21.2592 8.23945H7.75917L10.0544 0.973328H6.33435L0.00904169 20.9981H3.72904L6.62965 11.8153H20.1296L17.229 20.9981H20.979L27.2953 1.00193H23.5453Z" fill="#F1E2AE"/>
<path d="M49.9327 17.4222L46.3385 0.973328L32.3527 17.4222L29.3241 21.0267H33.5241L36.5827 17.4222L43.8445 8.8688L45.7327 17.4222L46.5141 21.0267H50.7141L49.9327 17.4222Z" fill="#F1E2AE"/>
<path d="M81.8344 6.49444L81.8615 6.40862C82.8103 3.40491 81.0584 0.973328 77.9084 0.973328H69.3884C66.2684 0.973328 62.9803 3.40491 62.0315 6.40862L62.0044 6.49444C61.643 7.63871 61.6687 8.69716 62.0185 9.58397C62.1382 9.87004 62.3178 10.1561 62.5065 10.4136C63.1983 11.3576 64.3976 11.9297 65.9276 11.9297H73.4876C75.0776 11.9297 76.009 13.1598 75.5301 14.676C75.0512 16.1921 73.3426 17.4222 71.7526 17.4222H65.1826C63.5626 17.4222 62.6612 16.1921 63.1401 14.676H59.4201C58.3177 18.166 60.3631 20.9981 64.0531 20.9981H70.6231C74.2831 20.9981 78.1477 18.166 79.2501 14.676C79.729 13.1598 79.6227 11.7867 79.0152 10.671C78.9823 10.5852 78.9194 10.4994 78.8565 10.4136C78.0631 9.12626 76.5761 8.32527 74.6261 8.32527H67.0661C66.0161 8.32527 65.3991 7.52428 65.7244 6.49444L65.7515 6.40862C66.0768 5.37877 67.1999 4.57778 68.2499 4.57778H76.7699C77.8499 4.57778 78.4668 5.37877 78.1415 6.40862L78.1144 6.49444H81.8344Z" fill="#F1E2AE"/>
<path d="M104.564 17.4222L100.969 0.973328L86.9836 17.4222L83.955 21.0267H88.155L91.2136 17.4222L98.4754 8.8688L100.364 17.4222L101.145 21.0267H105.345L104.564 17.4222Z" fill="#F1E2AE"/>
<path d="M117.415 20.9981L123.731 1.00193H120.011L113.695 20.9981H117.415Z" fill="#F1E2AE"/>
</svg>
