<svg width="15" height="14" viewBox="0 0 15 14" fill="none" xmlns="http://www.w3.org/2000/svg">
    <path d="M14.9941 7C14.9941 3.13401 11.8601 1.18292e-06 7.99414 0C4.12815 -2.14186e-06 0.994142 3.134 0.994141 7C0.994138 10.866 4.12815 14 7.99414 14C11.8601 14 14.9941 10.866 14.9941 7ZM5.80249 5.6315C5.80249 4.42262 6.78511 3.44 7.99399 3.44C9.20288 3.44 10.1855 4.42262 10.1855 5.6315C10.1855 6.60163 9.4429 7.35248 8.701 7.65455C8.58005 7.70488 8.49403 7.82451 8.49403 7.97008V8.7675H7.49403V7.97008C7.49403 7.41041 7.83289 6.931 8.32041 6.7298L8.32296 6.72875C8.81772 6.52775 9.1855 6.07185 9.1855 5.6315C9.1855 4.9749 8.65059 4.44 7.99399 4.44C7.33739 4.44 6.80249 4.9749 6.80249 5.6315H5.80249ZM7.46673 10.1734C7.46673 9.88225 7.70277 9.64621 7.99395 9.64621C8.28513 9.64621 8.52117 9.88225 8.52117 10.1734C8.52117 10.4646 8.28513 10.7007 7.99395 10.7007C7.70277 10.7007 7.46673 10.4646 7.46673 10.1734Z" fill="black" fill-opacity="0.4"/>
</svg>
