<svg xmlns="http://www.w3.org/2000/svg" width="16" height="16" viewBox="0 0 16 16" fill="none">
<path fill-rule="evenodd" clip-rule="evenodd" d="M5.95054 10.9267H9.5413C9.81192 10.9267 10.0363 10.7 10.0363 10.4267C10.0363 10.1534 9.81192 9.93338 9.5413 9.93338H5.95054C5.67991 9.93338 5.45549 10.1534 5.45549 10.4267C5.45549 10.7 5.67991 10.9267 5.95054 10.9267ZM8.18156 6.60004H5.95054C5.67991 6.60004 5.45549 6.82671 5.45549 7.10004C5.45549 7.37338 5.67991 7.59338 5.95054 7.59338H8.18156C8.45219 7.59338 8.67661 7.37338 8.67661 7.10004C8.67661 6.82671 8.45219 6.60004 8.18156 6.60004ZM12.8921 6.01708C13.0472 6.01529 13.2162 6.01334 13.3697 6.01334C13.5347 6.01334 13.6667 6.14668 13.6667 6.31334V11.6733C13.6667 13.3267 12.34 14.6667 10.703 14.6667H5.44889C3.73271 14.6667 2.33337 13.26 2.33337 11.5267V4.34001C2.33337 2.68668 3.66671 1.33334 5.31027 1.33334H8.83502C9.00664 1.33334 9.13865 1.47334 9.13865 1.64001V3.78668C9.13865 5.00668 10.1354 6.00668 11.3433 6.01334C11.6254 6.01334 11.8742 6.01545 12.0918 6.0173C12.2612 6.01873 12.4117 6.02001 12.5446 6.02001C12.6386 6.02001 12.7604 6.0186 12.8921 6.01708ZM13.0741 5.04401C12.5315 5.04601 11.8919 5.04401 11.4319 5.03934C10.7018 5.03934 10.1005 4.43201 10.1005 3.69467V1.93734C10.1005 1.65001 10.4457 1.50734 10.6431 1.71467C11.0006 2.09018 11.4921 2.60648 11.9813 3.12029C12.4682 3.6318 12.9528 4.14083 13.3005 4.50601C13.4932 4.70801 13.352 5.04334 13.0741 5.04401Z" fill="black" fill-opacity="0.6"/>
</svg>
