<svg width="14" height="14" viewBox="0 0 14 14" fill="none" xmlns="http://www.w3.org/2000/svg">
<path d="M11.7963 0C12.6165 0 13.278 0.66325 13.317 1.44375V14L11.7555 12.6741L11.3751 12.3643H10.898H10.3531H2.16428C1.34645 12.3643 0.682617 11.7431 0.682617 10.92V1.44667C0.682617 0.666167 1.34762 0.00175 2.1672 0.00175H11.7922L11.7963 0ZM8.22745 3.31508H8.20995L8.09212 3.43175C9.30137 3.78175 9.88645 4.32833 9.88645 4.32833C9.10712 3.93867 8.40478 3.74383 7.70245 3.66508C7.19495 3.58633 6.68745 3.62775 6.2587 3.66508H6.14203C5.86787 3.66508 5.28453 3.78175 4.50287 4.09383C4.23045 4.21225 4.07412 4.28983 4.07412 4.28983C4.07412 4.28983 4.65862 3.70533 5.94662 3.39325L5.86787 3.3145C5.86787 3.3145 4.89253 3.27717 3.83962 4.05533C3.83962 4.05533 2.7867 5.88933 2.7867 8.15033C2.7867 8.15033 3.37003 9.16533 4.97012 9.20383C4.97012 9.20383 5.20345 8.89292 5.4397 8.61933C4.54137 8.34633 4.19137 7.80033 4.19137 7.80033C4.19137 7.80033 4.26953 7.83883 4.38678 7.917H4.42178C4.43928 7.917 4.44745 7.92575 4.45678 7.9345V7.938C4.46612 7.94733 4.47428 7.9555 4.49178 7.9555C4.68428 8.03483 4.87678 8.113 5.03428 8.18883C5.37112 8.33302 5.72344 8.43794 6.08428 8.5015C6.62678 8.58025 7.24862 8.61817 7.95678 8.5015C8.30678 8.42275 8.65678 8.34575 9.00678 8.18942C9.23428 8.07275 9.51428 7.95608 9.8217 7.7595C9.8217 7.7595 9.4717 8.3055 8.53545 8.5785C8.72795 8.85033 8.9992 9.16183 8.9992 9.16183C10.5999 9.12683 11.2217 8.11183 11.2567 8.155C11.2567 5.8975 10.198 4.06 10.198 4.06C9.2442 3.35183 8.3517 3.325 8.1942 3.325L8.22687 3.31333L8.22745 3.31508ZM8.32545 5.88933C8.73553 5.88933 9.06628 6.23933 9.06628 6.66808C9.06628 7.09975 8.73378 7.44975 8.32545 7.44975C7.91712 7.44975 7.58462 7.09975 7.58462 6.67158C7.58578 6.23992 7.91887 5.89108 8.32545 5.89108V5.88933ZM5.67537 5.88933C6.0837 5.88933 6.41387 6.23933 6.41387 6.66808C6.41387 7.09975 6.08137 7.44975 5.67303 7.44975C5.2647 7.44975 4.9322 7.09975 4.9322 6.67158C4.9322 6.23992 5.2647 5.89108 5.67303 5.89108L5.67537 5.88933Z" fill="black" fill-opacity="0.6"/>
</svg>
