<svg width="16" height="12" viewBox="0 0 16 12" fill="none" xmlns="http://www.w3.org/2000/svg">
<path d="M7.26112 10.144C7.53731 10.144 7.70302 10.376 7.70302 10.608C7.70302 10.898 7.48207 11.072 7.26112 11.072C6.98492 11.072 6.81921 10.84 6.81921 10.608C6.81921 10.376 6.98492 10.144 7.26112 10.144ZM14.4973 7.18597C14.2211 7.18597 14.0554 6.95397 14.0554 6.72197C14.0554 6.48997 14.2764 6.25797 14.4973 6.25797C14.7735 6.25797 14.9392 6.48997 14.9392 6.72197C14.9392 6.95397 14.7183 7.18597 14.4973 7.18597ZM14.4973 5.21397C13.724 5.21397 13.0611 5.90997 13.0611 6.72197C13.0611 6.89597 13.0611 7.06997 13.1164 7.18597L8.42111 9.79597C8.14492 9.38997 7.70302 9.15797 7.26112 9.15797C6.70873 9.15797 6.21159 9.50597 5.99064 9.96997L1.79254 7.64997C1.35064 7.41797 1.01921 6.60597 1.07445 5.90997C1.07445 5.56197 1.24016 5.27197 1.40588 5.15597C1.51635 5.09797 1.68207 5.09797 1.79254 5.15597H1.84778C2.95254 5.79397 6.6535 7.76597 6.76397 7.88197C6.98492 7.99797 7.15064 8.05597 7.53731 7.82397L15.1049 3.70597C15.2154 3.64797 15.3259 3.53197 15.3259 3.35797C15.3259 3.12597 15.1049 3.00997 15.1049 3.00997C14.663 2.77797 14.0002 2.48797 13.3925 2.13997C12.0116 1.44397 10.4649 0.689966 9.74683 0.341965C9.13921 -0.00603525 8.69731 0.283965 8.58683 0.341965L8.42111 0.399965C5.32778 2.02397 1.18492 4.16997 0.963972 4.28597C0.522067 4.57597 0.301115 5.09797 0.245877 5.73597C0.190639 6.77997 0.687782 7.88197 1.46112 8.28797L5.9354 10.724C6.04588 11.478 6.6535 12 7.31635 12C8.08969 12 8.75254 11.362 8.75254 10.55L13.6687 7.76597C13.9449 7.99797 14.2211 8.05597 14.5525 8.05597C15.3259 8.05597 15.9887 7.35997 15.9887 6.54797C15.8783 5.85197 15.2706 5.21397 14.4973 5.21397Z" fill="black" fill-opacity="0.6"/>
</svg>
