<svg width="14" height="14" viewBox="0 0 14 14" fill="none" xmlns="http://www.w3.org/2000/svg">
<path d="M7.00001 0C3.13475 0 0.00195312 3.21211 0.00195312 7.17592C0.00195312 10.3455 2.0069 13.035 4.78804 13.9839C5.13795 14.0498 5.26624 13.8282 5.26624 13.638C5.26624 13.4678 5.25983 13.0164 5.25633 12.4175C3.3097 12.8513 2.89857 11.4552 2.89857 11.4552C2.58074 10.6271 2.12178 10.4067 2.12178 10.4067C1.48612 9.96115 2.17018 9.9699 2.17018 9.9699C2.87232 10.0206 3.24147 10.7094 3.24147 10.7094C3.86605 11.8057 4.8796 11.4896 5.27849 11.3054C5.34206 10.8417 5.52342 10.5257 5.72287 10.346C4.16871 10.1653 2.53525 9.55002 2.53525 6.80036C2.53525 6.01716 2.80759 5.37626 3.25547 4.87473C3.18374 4.69336 2.94347 3.96382 3.3237 2.97592C3.3237 2.97592 3.91154 2.78348 5.24816 3.7113C5.80684 3.5521 6.40518 3.47279 7.0006 3.46987C7.59485 3.47279 8.19376 3.5521 8.75244 3.7113C10.0879 2.78289 10.6746 2.97592 10.6746 2.97592C11.0566 3.96382 10.8169 4.69336 10.7446 4.87473C11.1936 5.37626 11.4636 6.01716 11.4636 6.80036C11.4636 9.55643 9.82781 10.1635 8.26899 10.3408C8.51976 10.5624 8.7437 10.9998 8.7437 11.6698C8.7437 12.6292 8.73495 13.4024 8.73495 13.638C8.73495 13.8299 8.86091 14.0533 9.21606 13.9827C11.9949 13.0321 13.9981 10.3443 13.9981 7.17592C13.9981 3.21211 10.8647 0 7.00001 0Z" fill="black" fill-opacity="0.6"/>
</svg>
