<svg width="14" height="12" viewBox="0 0 14 12" fill="none" xmlns="http://www.w3.org/2000/svg">
<path d="M4.40272 11.6879C9.68576 11.6879 12.5754 7.31096 12.5754 3.51528C12.5754 3.39096 12.5754 3.2672 12.567 3.144C13.1291 2.73739 13.6144 2.23394 14 1.6572C13.4758 1.8896 12.9197 2.04194 12.3502 2.10912C12.9499 1.75019 13.3987 1.18558 13.613 0.520403C13.0492 0.855008 12.4324 1.0908 11.7891 1.2176C11.356 0.757106 10.7833 0.452177 10.1594 0.350002C9.53561 0.247827 8.89549 0.354103 8.33815 0.652384C7.7808 0.950665 7.3373 1.42432 7.07627 2.00006C6.81524 2.57579 6.75123 3.22151 6.89416 3.83728C5.75219 3.78 4.63502 3.48322 3.61518 2.96621C2.59534 2.44919 1.69561 1.72351 0.9744 0.836243C0.607091 1.46857 0.494592 2.21713 0.659808 2.92949C0.825024 3.64185 1.25553 4.26447 1.86368 4.67056C1.40655 4.65717 0.959378 4.53385 0.56 4.31104V4.34744C0.560181 5.01061 0.789746 5.65329 1.20976 6.16649C1.62977 6.67969 2.21437 7.03181 2.8644 7.16312C2.44153 7.27847 1.99784 7.29533 1.56744 7.2124C1.75106 7.78309 2.10842 8.28214 2.58956 8.63978C3.0707 8.99743 3.65157 9.19578 4.25096 9.20712C3.65542 9.67523 2.97343 10.0213 2.24401 10.2256C1.51459 10.4299 0.752042 10.4884 0 10.3977C1.31357 11.2406 2.84196 11.6877 4.40272 11.6857" fill="black" fill-opacity="0.6"/>
</svg>
